<?xml version="1.0" encoding="UTF-8" standalone="no"?>
<!-- Created with Inkscape (http://www.inkscape.org/) -->

<svg
   xmlns:dc="http://purl.org/dc/elements/1.1/"
   xmlns:cc="http://creativecommons.org/ns#"
   xmlns:rdf="http://www.w3.org/1999/02/22-rdf-syntax-ns#"
   xmlns:svg="http://www.w3.org/2000/svg"
   xmlns="http://www.w3.org/2000/svg"
   xmlns:sodipodi="http://sodipodi.sourceforge.net/DTD/sodipodi-0.dtd"
   xmlns:inkscape="http://www.inkscape.org/namespaces/inkscape"
   width="49.240017mm"
   height="8.7376003mm"
   viewBox="0 0 174.47251 30.960001"
   id="svg5306"
   version="1.1"
   inkscape:version="0.91 r13725"
   sodipodi:docname="logo.svg">
  <defs
     id="defs5308" />
  <sodipodi:namedview
     id="base"
     pagecolor="#ffffff"
     bordercolor="#666666"
     borderopacity="1.0"
     inkscape:pageopacity="0.0"
     inkscape:pageshadow="2"
     inkscape:zoom="1"
     inkscape:cx="182.40144"
     inkscape:cy="-141.29356"
     inkscape:document-units="px"
     inkscape:current-layer="layer1"
     showgrid="false"
     fit-margin-top="0"
     fit-margin-left="0"
     fit-margin-right="0"
     fit-margin-bottom="0"
     inkscape:window-width="1257"
     inkscape:window-height="917"
     inkscape:window-x="75"
     inkscape:window-y="356"
     inkscape:window-maximized="0" />
  <metadata
     id="metadata5311">
    <rdf:RDF>
      <cc:Work
         rdf:about="">
        <dc:format>image/svg+xml</dc:format>
        <dc:type
           rdf:resource="http://purl.org/dc/dcmitype/StillImage" />
        <dc:title></dc:title>
      </cc:Work>
    </rdf:RDF>
  </metadata>
  <g
     inkscape:label="Layer 1"
     inkscape:groupmode="layer"
     id="layer1"
     transform="translate(-150.65143,-360.21362)">
    <g
       style="font-style:normal;font-weight:normal;font-size:15px;line-height:125%;font-family:sans-serif;letter-spacing:0px;word-spacing:0px;fill:#000000;fill-opacity:1;stroke:none;stroke-width:1px;stroke-linecap:butt;stroke-linejoin:miter;stroke-opacity:1"
       id="text6580">
      <path
         d="m 150.65143,383.89362 0,-4.8 q 0,-3.24 1.84,-5.24 1.88,-2.04 5.48,-2.04 2.2,0 3.72,0.84 1.52,0.8 1.52,1.52 0,0.28 -0.24,0.48 -0.2,0.2 -0.48,0.2 -0.2,0 -0.72,-0.4 -0.48,-0.4 -1.44,-0.8 -0.96,-0.44 -2.36,-0.44 -2.84,0 -4.4,1.56 -1.52,1.56 -1.52,4.32 l 0,4.8 q 0,2.76 1.52,4.32 1.56,1.56 4.44,1.56 1.48,0 2.48,-0.4 1.04,-0.44 1.52,-0.84 0.52,-0.4 0.76,-0.4 0.28,0 0.48,0.2 0.2,0.2 0.2,0.48 0,0.76 -1.6,1.56 -1.56,0.8 -3.88,0.8 -3.6,0 -5.48,-2 -1.84,-2 -1.84,-5.28 z"
         style="font-style:normal;font-variant:normal;font-weight:200;font-stretch:normal;font-size:40px;font-family:Dosis;-inkscape-font-specification:'Dosis Ultra-Light';fill:#8dced2;fill-opacity:1"
         id="path6698" />
      <path
         d="m 167.42518,390.21362 0,-29.32 q 0,-0.68 0.68,-0.68 0.72,0 0.72,0.68 l 0,13.96 q 1.72,-3.04 5.36,-3.04 2.96,0 5.08,2.12 2.12,2.12 2.12,5.08 l 0,11.2 q 0,0.72 -0.72,0.72 -0.68,0 -0.68,-0.72 l 0,-11.2 q 0,-2.24 -1.72,-4 -1.68,-1.8 -3.96,-1.8 -2.16,0 -3.84,1.6 -1.64,1.6 -1.64,4.2 l 0,11.2 q 0,0.28 -0.24,0.52 -0.2,0.2 -0.48,0.2 -0.28,0 -0.48,-0.2 -0.2,-0.24 -0.2,-0.52 z"
         style="font-style:normal;font-variant:normal;font-weight:200;font-stretch:normal;font-size:40px;font-family:Dosis;-inkscape-font-specification:'Dosis Ultra-Light';fill:#8dced2;fill-opacity:1"
         id="path6700" />
      <path
         d="m 186.44205,365.45362 q -0.36,-0.4 -0.36,-0.92 0,-0.52 0.36,-0.88 0.4,-0.36 0.92,-0.36 0.52,0 0.88,0.36 0.36,0.36 0.36,0.88 0,0.52 -0.36,0.92 -0.36,0.36 -0.88,0.36 -0.52,0 -0.92,-0.36 z m 0.24,24.76 0,-17.48 q 0,-0.28 0.2,-0.48 0.2,-0.2 0.48,-0.2 0.72,0 0.72,0.68 l 0,17.48 q 0,0.28 -0.24,0.52 -0.2,0.2 -0.48,0.2 -0.28,0 -0.48,-0.2 -0.2,-0.24 -0.2,-0.52 z"
         style="font-style:normal;font-variant:normal;font-weight:200;font-stretch:normal;font-size:40px;font-family:Dosis;-inkscape-font-specification:'Dosis Ultra-Light';fill:#8dced2;fill-opacity:1"
         id="path6702" />
      <path
         d="m 193.47893,390.21362 0,-17.48 q 0,-0.68 0.68,-0.68 0.72,0 0.72,0.68 l 0,2.12 q 1.72,-3.04 5.36,-3.04 2.96,0 5.08,2.12 2.12,2.12 2.12,5.08 l 0,11.2 q 0,0.72 -0.72,0.72 -0.68,0 -0.68,-0.72 l 0,-11.2 q 0,-2.24 -1.72,-4 -1.68,-1.8 -3.96,-1.8 -2.16,0 -3.84,1.6 -1.64,1.6 -1.64,4.2 l 0,11.2 q 0,0.28 -0.24,0.52 -0.2,0.2 -0.48,0.2 -0.28,0 -0.48,-0.2 -0.2,-0.24 -0.2,-0.52 z"
         style="font-style:normal;font-variant:normal;font-weight:200;font-stretch:normal;font-size:40px;font-family:Dosis;-inkscape-font-specification:'Dosis Ultra-Light';fill:#8dced2;fill-opacity:1"
         id="path6704" />
      <path
         d="m 212.0558,383.89362 0,-4.88 q 0,-2.88 2.08,-5.04 2.12,-2.16 5,-2.16 2.88,0 5,2.12 2.12,2.12 2.12,5.08 l 0,4.88 q 0,2.88 -2.16,5.08 -2.12,2.2 -4.96,2.2 -2.84,0 -4.96,-2.2 -2.12,-2.2 -2.12,-5.08 z m 1.4,0 q 0,2.28 1.68,4.08 1.68,1.8 4,1.8 2.32,0 4,-1.8 1.72,-1.8 1.72,-4.08 l 0,-4.88 q 0,-2.24 -1.68,-4 -1.68,-1.8 -4.04,-1.8 -2.36,0 -4.04,1.8 -1.64,1.76 -1.64,4 l 0,4.88 z"
         style="font-style:normal;font-variant:normal;font-weight:200;font-stretch:normal;font-size:40px;font-family:Dosis;-inkscape-font-specification:'Dosis Ultra-Light';fill:#8dced2;fill-opacity:1"
         id="path6706" />
      <path
         d="m 230.53705,390.77362 q -0.4,-0.44 -0.4,-1.04 0,-0.6 0.4,-1 0.4,-0.44 1.04,-0.44 0.56,0 0.96,0.44 0.44,0.4 0.44,1 0,0.56 -0.44,1 -0.4,0.44 -0.96,0.44 -0.6,0 -1.04,-0.4 z"
         style="font-style:normal;font-variant:normal;font-weight:200;font-stretch:normal;font-size:40px;font-family:Dosis;-inkscape-font-specification:'Dosis Ultra-Light';fill:#8dced2;fill-opacity:1"
         id="path6708" />
      <path
         d="m 236.8233,383.89362 0,-4.8 q 0,-3.24 1.84,-5.24 1.88,-2.04 5.48,-2.04 2.2,0 3.72,0.84 1.52,0.8 1.52,1.52 0,0.28 -0.24,0.48 -0.2,0.2 -0.48,0.2 -0.2,0 -0.72,-0.4 -0.48,-0.4 -1.44,-0.8 -0.96,-0.44 -2.36,-0.44 -2.84,0 -4.4,1.56 -1.52,1.56 -1.52,4.32 l 0,4.8 q 0,2.76 1.52,4.32 1.56,1.56 4.44,1.56 1.48,0 2.48,-0.4 1.04,-0.44 1.52,-0.84 0.52,-0.4 0.76,-0.4 0.28,0 0.48,0.2 0.2,0.2 0.2,0.48 0,0.76 -1.6,1.56 -1.56,0.8 -3.88,0.8 -3.6,0 -5.48,-2 -1.84,-2 -1.84,-5.28 z"
         style="font-style:normal;font-variant:normal;font-weight:200;font-stretch:normal;font-size:40px;font-family:Dosis;-inkscape-font-specification:'Dosis Ultra-Light';fill:#8dced2;fill-opacity:1"
         id="path6710" />
      <path
         d="m 252.52455,383.89362 0,-4.88 q 0,-2.88 2.08,-5.04 2.12,-2.16 5,-2.16 2.88,0 5,2.12 2.12,2.12 2.12,5.08 l 0,4.88 q 0,2.88 -2.16,5.08 -2.12,2.2 -4.96,2.2 -2.84,0 -4.96,-2.2 -2.12,-2.2 -2.12,-5.08 z m 1.4,0 q 0,2.28 1.68,4.08 1.68,1.8 4,1.8 2.32,0 4,-1.8 1.72,-1.8 1.72,-4.08 l 0,-4.88 q 0,-2.24 -1.68,-4 -1.68,-1.8 -4.04,-1.8 -2.36,0 -4.04,1.8 -1.64,1.76 -1.64,4 l 0,4.88 z"
         style="font-style:normal;font-variant:normal;font-weight:200;font-stretch:normal;font-size:40px;font-family:Dosis;-inkscape-font-specification:'Dosis Ultra-Light';fill:#8dced2;fill-opacity:1"
         id="path6712" />
      <path
         d="m 271.5658,390.25362 0,-22.92 q 0,-2.88 2.12,-5 2.12,-2.12 5,-2.12 l 0.4,0 q 0.28,0 0.48,0.2 0.24,0.2 0.24,0.52 0,0.68 -0.72,0.68 l -0.4,0 q -2.36,0 -4.04,1.72 -1.64,1.72 -1.68,4 l 0,4.72 6.12,0 q 0.28,0 0.48,0.2 0.24,0.2 0.24,0.48 0,0.28 -0.24,0.52 -0.2,0.2 -0.48,0.2 l -6.12,0 0,16.8 q 0,0.28 -0.24,0.48 -0.2,0.2 -0.52,0.2 -0.64,0 -0.64,-0.68 z"
         style="font-style:normal;font-variant:normal;font-weight:200;font-stretch:normal;font-size:40px;font-family:Dosis;-inkscape-font-specification:'Dosis Ultra-Light';fill:#8dced2;fill-opacity:1"
         id="path6714" />
      <path
         d="m 283.1283,390.25362 0,-22.92 q 0,-2.88 2.12,-5 2.12,-2.12 5,-2.12 l 0.4,0 q 0.28,0 0.48,0.2 0.24,0.2 0.24,0.52 0,0.68 -0.72,0.68 l -0.4,0 q -2.36,0 -4.04,1.72 -1.64,1.72 -1.68,4 l 0,4.72 6.12,0 q 0.28,0 0.48,0.2 0.24,0.2 0.24,0.48 0,0.28 -0.24,0.52 -0.2,0.2 -0.48,0.2 l -6.12,0 0,16.8 q 0,0.28 -0.24,0.48 -0.2,0.2 -0.52,0.2 -0.64,0 -0.64,-0.68 z"
         style="font-style:normal;font-variant:normal;font-weight:200;font-stretch:normal;font-size:40px;font-family:Dosis;-inkscape-font-specification:'Dosis Ultra-Light';fill:#8dced2;fill-opacity:1"
         id="path6716" />
      <path
         d="m 293.11143,383.89362 0,-5 q 0,-2.88 2.08,-4.96 2.12,-2.12 5.04,-2.12 2.88,0 4.96,2.08 2.12,2.04 2.12,5.12 0,1.04 -0.24,1.68 -0.24,0.64 -0.8,0.92 -0.56,0.28 -1.04,0.36 -0.44,0.04 -1.24,0.04 l -9.48,0 0,1.88 q 0,2.68 1.88,4.28 1.88,1.6 4.88,1.6 1.48,0 2.48,-0.4 1,-0.44 1.48,-0.84 0.52,-0.4 0.76,-0.4 0.28,0 0.48,0.24 0.24,0.24 0.24,0.48 0,0.4 -0.64,0.96 -0.64,0.52 -1.96,0.96 -1.32,0.4 -2.92,0.4 -3.56,0 -5.84,-2 -2.24,-2.04 -2.24,-5.28 z m 1.4,-3.28 9,0 q 1.48,0 1.92,-0.28 0.48,-0.28 0.48,-1.2 0,-2.28 -1.6,-4.08 -1.6,-1.84 -4.08,-1.84 -2.4,0 -4.08,1.72 -1.64,1.68 -1.64,3.96 l 0,1.72 z"
         style="font-style:normal;font-variant:normal;font-weight:200;font-stretch:normal;font-size:40px;font-family:Dosis;-inkscape-font-specification:'Dosis Ultra-Light';fill:#8dced2;fill-opacity:1"
         id="path6718" />
      <path
         d="m 310.92393,383.89362 0,-5 q 0,-2.88 2.08,-4.96 2.12,-2.12 5.04,-2.12 2.88,0 4.96,2.08 2.12,2.04 2.12,5.12 0,1.04 -0.24,1.68 -0.24,0.64 -0.8,0.92 -0.56,0.28 -1.04,0.36 -0.44,0.04 -1.24,0.04 l -9.48,0 0,1.88 q 0,2.68 1.88,4.28 1.88,1.6 4.88,1.6 1.48,0 2.48,-0.4 1,-0.44 1.48,-0.84 0.52,-0.4 0.76,-0.4 0.28,0 0.48,0.24 0.24,0.24 0.24,0.48 0,0.4 -0.64,0.96 -0.64,0.52 -1.96,0.96 -1.32,0.4 -2.92,0.4 -3.56,0 -5.84,-2 -2.24,-2.04 -2.24,-5.28 z m 1.4,-3.28 9,0 q 1.48,0 1.92,-0.28 0.48,-0.28 0.48,-1.2 0,-2.28 -1.6,-4.08 -1.6,-1.84 -4.08,-1.84 -2.4,0 -4.08,1.72 -1.64,1.68 -1.64,3.96 l 0,1.72 z"
         style="font-style:normal;font-variant:normal;font-weight:200;font-stretch:normal;font-size:40px;font-family:Dosis;-inkscape-font-specification:'Dosis Ultra-Light';fill:#8dced2;fill-opacity:1"
         id="path6720" />
    </g>
  </g>
</svg>
